<?xml version="1.0" encoding="UTF-8"?>
<svg version="1.1" xmlns="http://www.w3.org/2000/svg" width="516" height="483">
<path d="M0 0 C1.47777642 -0.00461817 2.95554822 -0.0109772 4.43331057 -0.01890898 C8.46299093 -0.03550006 12.492289 -0.02740295 16.52197015 -0.0149641 C20.87994726 -0.00587364 25.23786091 -0.01990312 29.5958252 -0.03088379 C38.12106626 -0.04863157 46.64616613 -0.04484561 55.17141264 -0.03323323 C62.10323502 -0.02418383 69.03501796 -0.02298142 75.96684456 -0.02732849 C77.44914463 -0.02824789 77.44914463 -0.02824789 78.96139016 -0.02918586 C80.96918325 -0.03046482 82.97697634 -0.03176168 84.98476941 -0.03307623 C103.79390672 -0.04447122 122.60296593 -0.0313856 141.41209043 -0.00987476 C157.5340078 0.00799245 173.65580993 0.00489311 189.77772522 -0.0135498 C208.51998797 -0.03498041 227.26218233 -0.04336977 246.00445563 -0.03110075 C248.00499029 -0.02982662 250.00552496 -0.02856913 252.00605965 -0.02732849 C253.4823332 -0.02640284 253.4823332 -0.02640284 254.98843045 -0.02545848 C261.9074744 -0.02201195 268.8264748 -0.02781895 275.74551201 -0.0372467 C284.1839918 -0.04849254 292.62232284 -0.04537256 301.0607857 -0.02412373 C305.3622038 -0.01364758 309.66337436 -0.00943244 313.96479034 -0.02272034 C317.90964909 -0.03472197 321.85403305 -0.02795525 325.79884929 -0.00681013 C327.21862703 -0.00237667 328.63844566 -0.00453619 330.05819666 -0.01431328 C346.29562883 -0.11747152 360.1078313 4.40170725 372.17445374 15.46887207 C380.78629322 24.81477688 386.13222245 36.87541537 386.2144928 49.57653809 C386.22410034 50.77871475 386.23370789 51.98089142 386.24360657 53.21949768 C386.24998138 55.15858253 386.24998138 55.15858253 386.25648499 57.13684082 C386.25931236 57.80129652 386.26213974 58.46575222 386.2650528 59.15034294 C386.28001449 62.67196927 386.28926095 66.19355501 386.29359436 69.71520996 C386.29905129 73.32031748 386.32302838 76.92504202 386.35156631 80.53003025 C386.37036852 83.32963575 386.37540769 86.12915259 386.37693024 88.92881584 C386.38135987 90.89383728 386.39992445 92.85881092 386.41889954 94.82374573 C386.38132618 110.15109002 382.51230007 124.08299511 371.74085999 135.44543457 C358.97125593 147.24273375 345.44804555 150.11109134 328.62342834 150.02209473 C326.88435243 150.02756423 325.14528135 150.0348107 323.40621948 150.04368591 C319.68109859 150.05895202 315.95625283 150.06185463 312.23110771 150.0549202 C306.33390532 150.04407995 300.43698745 150.06157875 294.53982544 150.08273315 C285.20935929 150.11292579 275.87897817 150.1246815 266.54846722 150.12830961 C249.84384674 150.13496731 233.13928549 150.16408782 216.43473727 150.21340597 C210.57927328 150.22984679 204.72393295 150.23533189 198.86844814 150.23181558 C195.21983427 150.23137683 191.57126666 150.23896801 187.92266655 150.24849129 C186.23851204 150.25116112 184.55434801 150.25044452 182.8701973 150.24598122 C166.28610752 149.73720643 166.28610752 149.73720643 151.79582977 156.66510201 C143.3004794 165.64976759 144.35294679 176.71048556 144.43812561 188.24279785 C144.4346207 190.24112417 144.42895796 192.23944769 144.42131042 194.23776245 C144.40710795 199.64268055 144.42407855 205.04708714 144.4475956 210.45195627 C144.46775676 216.11765726 144.46182239 221.78333811 144.45948792 227.44906616 C144.45954142 236.95982258 144.47926115 246.4703799 144.5113678 255.9810791 C144.54827881 266.96817358 144.55703969 277.95500756 144.55007029 288.94215596 C144.54376044 299.52586381 144.55452717 310.10948259 144.57403564 320.69317245 C144.58219852 325.1913874 144.58492125 329.68955675 144.58334351 334.18777847 C144.58246315 339.48532707 144.59672157 344.78262896 144.62257004 350.08011246 C144.62971803 352.02149255 144.63182206 353.96289892 144.6284523 355.90428925 C144.62472355 358.55931207 144.63953313 361.21362041 144.65895081 363.86856079 C144.65362288 364.63219031 144.64829495 365.39581984 144.64280558 366.18258965 C144.7244774 372.67884752 146.08628145 378.16870604 150.36585999 383.25793457 C156.70984036 388.56917396 161.4125293 390.89724947 169.61195374 390.78918457 C176.29106492 390.01975096 181.89330013 386.73772411 186.05335999 381.50793457 C190.8613519 374.11471191 190.6135254 367.17043823 190.551651 358.56164551 C190.55547898 357.05285609 190.5611021 355.54407033 190.56837463 354.03529358 C190.58028773 350.79792576 190.57986487 347.56088252 190.56978035 344.32350922 C190.55415366 339.19470161 190.56794443 334.06622389 190.58581543 328.93743896 C190.61658641 318.96904179 190.61813939 309.00074638 190.61616516 299.03231049 C190.61477109 286.35874217 190.62527474 273.68525283 190.66474289 261.01174188 C190.67959777 255.92365003 190.67946505 250.83585338 190.66726506 245.74775743 C190.66252203 242.56882984 190.67012343 239.39001296 190.68080902 236.21110344 C190.68319561 234.74870913 190.68054991 233.28629554 190.67220116 231.82392311 C190.58310651 215.21031291 194.01347041 199.90364568 205.79554749 187.53918457 C215.82283198 178.51809818 228.28049296 173.36329663 241.78334045 173.39440918 C242.88402863 173.39448471 243.9847168 173.39456024 245.11875916 173.39463806 C246.2908493 173.39979935 247.46293945 173.40496063 248.67054749 173.41027832 C249.88284027 173.41169327 251.09513306 173.41310822 252.34416199 173.41456604 C256.20558671 173.42015112 260.06695287 173.43270096 263.92835999 173.44543457 C266.55075498 173.45045149 269.17315089 173.45501407 271.79554749 173.45910645 C278.21483821 173.47011568 284.63409491 173.48683902 291.05335999 173.50793457 C291.05335999 174.16793457 291.05335999 174.82793457 291.05335999 175.50793457 C290.03757874 175.6548877 289.02179749 175.80184082 287.97523499 175.95324707 C273.57953606 178.21996829 261.80001408 183.08023921 252.30726624 194.63293457 C242.56366957 208.23995235 242.90014634 222.96792059 242.97157288 239.02648926 C242.97513503 240.68010364 242.97821935 242.33371911 242.98086548 243.98733521 C242.98738547 247.53177947 242.99692479 251.07619791 243.00876045 254.62062836 C243.0271612 260.23729387 243.03668116 265.85395338 243.04467773 271.47064209 C243.06874651 287.4368765 243.10461654 303.40307315 243.14930725 319.3692627 C243.1739472 328.20010246 243.19125344 337.03092745 243.20086664 345.86179662 C243.20736656 351.43266651 243.22283429 357.00341346 243.24518406 362.57424116 C243.25700917 366.05586942 243.26028694 369.53746884 243.26128197 373.01911545 C243.26340872 374.61935909 243.26892746 376.21960287 243.27831268 377.8198204 C243.3881462 397.32025337 241.59384662 413.45141185 228.05335999 428.50793457 C218.7815402 436.90531626 207.22594787 442.57673817 194.63929749 442.68493652 C193.33694153 442.69777176 192.03458557 442.71060699 190.69276428 442.72383118 C189.27130009 442.73200352 187.84983155 442.7394463 186.42835999 442.74621582 C185.34755661 442.75232911 185.34755661 442.75232911 184.24491882 442.7585659 C180.4250467 442.77940614 176.60521019 442.7937121 172.78529358 442.80310059 C168.86954726 442.81411208 164.95437752 442.84845575 161.03883362 442.88827229 C158.00332197 442.91462681 154.96794322 442.92280932 151.93232727 442.92638206 C150.49084109 442.93120601 149.04935912 442.94269784 147.60798645 442.96142006 C131.22188956 443.16089434 117.44343801 438.55278661 105.41664124 427.19934082 C91.33032028 411.15723315 92.60714822 388.6364146 92.64930725 368.65148926 C92.64359381 366.18734428 92.63662582 363.72320195 92.62850952 361.25906372 C92.61252099 355.30196237 92.61045378 349.3449587 92.61572243 343.38784739 C92.61978727 338.54233961 92.61829336 333.69686284 92.61297417 328.85135651 C92.61222574 328.1580222 92.61147732 327.46468789 92.61070622 326.75034346 C92.60917455 325.34128004 92.6076362 323.93221662 92.60609125 322.52315322 C92.59241477 309.35850934 92.59777113 296.19392518 92.60927647 283.02928272 C92.61921879 271.01134748 92.60624232 258.99356599 92.58234227 246.97565445 C92.55791002 234.59575167 92.54835259 222.21592039 92.554995 209.83599401 C92.55847614 202.90134658 92.55632782 195.96681747 92.53874397 189.03218842 C92.52242091 182.51488369 92.52726728 175.99782433 92.54604912 169.48051071 C92.54972496 167.09614746 92.54665606 164.71176228 92.53616333 162.32741928 C92.4611737 143.87153824 93.72966314 129.12209352 106.55335999 114.69543457 C107.37835999 113.97355957 108.20335999 113.25168457 109.05335999 112.50793457 C109.52902405 112.02969238 110.00468811 111.5514502 110.49476624 111.05871582 C124.68996651 97.47921098 146.43224587 98.35909631 164.68885803 98.36608887 C166.3425048 98.36305116 167.99615073 98.35952804 169.64979553 98.3555603 C173.18985776 98.34772108 176.72991015 98.34254549 180.26997948 98.33926964 C185.87251184 98.33332106 191.47498199 98.31674737 197.07748413 98.29792786 C199.00098321 98.29159214 200.92448231 98.2852665 202.84798145 98.27895069 C204.29194292 98.27420197 204.29194292 98.27420197 205.76507533 98.26935732 C218.79320714 98.22737529 231.82130748 98.19427853 244.84950256 98.18200684 C253.66023228 98.17362292 262.47080509 98.15112925 271.28145629 98.11265117 C275.93624298 98.0929199 280.59079527 98.08047666 285.24562645 98.08548546 C289.61988995 98.09013627 293.99370804 98.07630309 298.36788177 98.04847336 C299.96901042 98.04157183 301.57018522 98.04142384 303.17131233 98.04867363 C312.41694324 98.08629915 319.61731319 97.99347416 327.04164124 91.86730957 C331.73932288 86.15803276 334.45274429 81.04819585 333.99085999 73.50793457 C333.05053299 66.99566998 330.89500992 62.3495845 326.24085999 57.69543457 C318.66844968 52.4986824 312.84205065 52.07161946 303.81378174 52.11352539 C301.96554455 52.10438874 301.96554455 52.10438874 300.07996923 52.0950675 C296.6716516 52.08132357 293.26381705 52.08097863 289.85550821 52.08644247 C286.17507695 52.089117 282.4947069 52.07457289 278.81430054 52.06234741 C271.60822001 52.04130862 264.40221997 52.03675168 257.19611236 52.0385353 C251.33727779 52.03984378 245.47846829 52.03603439 239.61963844 52.02861023 C237.93092277 52.02651099 236.24220709 52.02441339 234.55349141 52.02231741 C233.2926355 52.02075212 233.2926355 52.02075212 232.00630776 52.0191552 C216.11397816 52.00025887 200.22169473 52.00130108 184.32935856 52.00812453 C169.79973522 52.01369877 155.27028828 51.99287858 140.74070617 51.95976406 C125.81295727 51.92600682 110.88529282 51.91086131 95.95750505 51.91548109 C87.58022895 51.91772383 79.20311586 51.91251142 70.82587242 51.8875885 C63.69333579 51.866549 56.56105152 51.86300947 49.42850443 51.88188809 C45.79169436 51.89103001 42.15535449 51.89223722 38.51858139 51.87153244 C34.570125 51.84930249 30.62236728 51.86607896 26.67388916 51.88647461 C24.96214446 51.86769784 24.96214446 51.86769784 23.21581906 51.84854174 C14.77741949 51.94185395 8.05626787 53.92638541 1.67835999 59.63293457 C-2.00122335 66.14296663 -4.9906217 72.80690768 -3.61070251 80.38293457 C-1.32350247 87.70197472 3.43381621 92.78339167 10.05335999 96.50793457 C13.89496919 97.70244311 17.77196745 98.3207188 21.74085999 98.94543457 C37.61509923 101.88177252 48.48191116 107.52972426 58.63929749 120.53918457 C64.12333619 128.64891453 67.18890519 138.4614074 67.16688538 148.21618652 C67.16677208 149.8973632 67.16677208 149.8973632 67.16665649 151.61250305 C67.15891457 153.41119087 67.15891457 153.41119087 67.15101624 155.24621582 C67.14960129 156.4821196 67.14818634 157.71802338 67.14672852 158.99137878 C67.14208617 162.26451802 67.13311309 165.53760744 67.12202454 168.81072998 C67.11176403 172.15575705 67.10730629 175.5007863 67.10218811 178.8458252 C67.09116906 185.39988107 67.07443834 191.95390375 67.05335999 198.50793457 C66.39335999 198.50793457 65.73335999 198.50793457 65.05335999 198.50793457 C64.88320374 197.52953613 64.71304749 196.5511377 64.53773499 195.54309082 C63.18635944 188.09673578 61.79109402 181.17972604 58.05335999 174.50793457 C57.64472717 173.76156738 57.23609436 173.0152002 56.81507874 172.24621582 C50.8845321 162.40652013 41.74789214 156.33562427 31.05335999 152.50793457 C26.89184881 151.47892322 22.81392612 151.32727811 18.54945374 151.26184082 C17.07093297 151.22886747 15.59241749 151.19565649 14.11390686 151.16223145 C11.81275992 151.11518967 9.5116287 151.07079254 7.21034241 151.03112793 C-17.43131368 150.58667858 -17.43131368 150.58667858 -28.07164001 145.00793457 C-28.74904236 144.65537598 -29.4264447 144.30281738 -30.12437439 143.9395752 C-42.57620585 137.13795515 -50.35816336 126.06899709 -54.52920532 112.631073 C-56.25108654 105.67678851 -56.2526221 98.84128852 -56.24742126 91.70715332 C-56.25170639 90.39438919 -56.25599152 89.08162506 -56.26040649 87.7290802 C-56.2678266 84.96139463 -56.26760881 82.19383671 -56.26231384 79.42614746 C-56.25653237 75.91303895 -56.27343827 72.40045994 -56.29665852 68.88743877 C-56.31510378 65.49399029 -56.31120709 62.10065136 -56.30992126 58.70715332 C-56.31913101 57.4630217 -56.32834076 56.21889008 -56.33782959 54.9370575 C-56.25295794 38.70461691 -51.67791228 25.65396555 -40.42320251 13.79699707 C-28.68224995 2.94494943 -15.6146515 -0.10734522 0 0 Z " fill="#017EC2" transform="translate(88.94664001464844,24.4920654296875)"/>
<path d="M0 0 C1.47777642 -0.00461817 2.95554822 -0.0109772 4.43331057 -0.01890898 C8.46299093 -0.03550006 12.492289 -0.02740295 16.52197015 -0.0149641 C20.87994726 -0.00587364 25.23786091 -0.01990312 29.5958252 -0.03088379 C38.12106626 -0.04863157 46.64616613 -0.04484561 55.17141264 -0.03323323 C62.10323502 -0.02418383 69.03501796 -0.02298142 75.96684456 -0.02732849 C77.44914463 -0.02824789 77.44914463 -0.02824789 78.96139016 -0.02918586 C80.96918325 -0.03046482 82.97697634 -0.03176168 84.98476941 -0.03307623 C103.79390672 -0.04447122 122.60296593 -0.0313856 141.41209043 -0.00987476 C157.5340078 0.00799245 173.65580993 0.00489311 189.77772522 -0.0135498 C208.51998797 -0.03498041 227.26218233 -0.04336977 246.00445563 -0.03110075 C248.00499029 -0.02982662 250.00552496 -0.02856913 252.00605965 -0.02732849 C253.4823332 -0.02640284 253.4823332 -0.02640284 254.98843045 -0.02545848 C261.9074744 -0.02201195 268.8264748 -0.02781895 275.74551201 -0.0372467 C284.1839918 -0.04849254 292.62232284 -0.04537256 301.0607857 -0.02412373 C305.3622038 -0.01364758 309.66337436 -0.00943244 313.96479034 -0.02272034 C317.90964909 -0.03472197 321.85403305 -0.02795525 325.79884929 -0.00681013 C327.21862703 -0.00237667 328.63844566 -0.00453619 330.05819666 -0.01431328 C346.29562883 -0.11747152 360.1078313 4.40170725 372.17445374 15.46887207 C380.83303884 24.86550705 386.55108928 37.51003831 386.39710999 50.36730957 C385.22023978 61.11962375 381.46384439 71.79033495 375.05335999 80.50793457 C374.37853577 81.45346191 374.37853577 81.45346191 373.69007874 82.41809082 C366.84733947 91.18836227 356.08673787 97.89573248 345.05335999 99.50793457 C335.39957991 100.08196517 325.71304118 99.82206269 316.05335999 99.50793457 C317.3115609 96.99153273 318.19429968 96.89241519 320.74085999 95.82043457 C326.63384272 92.95843041 330.32004798 88.6506235 332.99085999 82.69543457 C335.02616769 76.43201741 334.02334618 70.12453191 331.36585999 64.19543457 C328.36232644 58.83661213 323.90511318 55.45687649 318.24971259 53.1250906 C313.55099037 51.80479042 308.65773292 52.09104154 303.81378174 52.11352539 C301.96554455 52.10438874 301.96554455 52.10438874 300.07996923 52.0950675 C296.6716516 52.08132357 293.26381705 52.08097863 289.85550821 52.08644247 C286.17507695 52.089117 282.4947069 52.07457289 278.81430054 52.06234741 C271.60822001 52.04130862 264.40221997 52.03675168 257.19611236 52.0385353 C251.33727779 52.03984378 245.47846829 52.03603439 239.61963844 52.02861023 C237.93092277 52.02651099 236.24220709 52.02441339 234.55349141 52.02231741 C233.2926355 52.02075212 233.2926355 52.02075212 232.00630776 52.0191552 C216.11397816 52.00025887 200.22169473 52.00130108 184.32935856 52.00812453 C169.79973522 52.01369877 155.27028828 51.99287858 140.74070617 51.95976406 C125.81295727 51.92600682 110.88529282 51.91086131 95.95750505 51.91548109 C87.58022895 51.91772383 79.20311586 51.91251142 70.82587242 51.8875885 C63.69333579 51.866549 56.56105152 51.86300947 49.42850443 51.88188809 C45.79169436 51.89103001 42.15535449 51.89223722 38.51858139 51.87153244 C34.570125 51.84930249 30.62236728 51.86607896 26.67388916 51.88647461 C24.96214446 51.86769784 24.96214446 51.86769784 23.21581906 51.84854174 C14.77741949 51.94185395 8.05626787 53.92638541 1.67835999 59.63293457 C-2.00122335 66.14296663 -4.9906217 72.80690768 -3.61070251 80.38293457 C-1.32350247 87.70197472 3.43381621 92.78339167 10.05335999 96.50793457 C13.89496919 97.70244311 17.77196745 98.3207188 21.74085999 98.94543457 C37.61509923 101.88177252 48.48191116 107.52972426 58.63929749 120.53918457 C64.12333619 128.64891453 67.18890519 138.4614074 67.16688538 148.21618652 C67.16677208 149.8973632 67.16677208 149.8973632 67.16665649 151.61250305 C67.15891457 153.41119087 67.15891457 153.41119087 67.15101624 155.24621582 C67.14960129 156.4821196 67.14818634 157.71802338 67.14672852 158.99137878 C67.14208617 162.26451802 67.13311309 165.53760744 67.12202454 168.81072998 C67.11176403 172.15575705 67.10730629 175.5007863 67.10218811 178.8458252 C67.09116906 185.39988107 67.07443834 191.95390375 67.05335999 198.50793457 C66.39335999 198.50793457 65.73335999 198.50793457 65.05335999 198.50793457 C64.88320374 197.52953613 64.71304749 196.5511377 64.53773499 195.54309082 C63.18635944 188.09673578 61.79109402 181.17972604 58.05335999 174.50793457 C57.64472717 173.76156738 57.23609436 173.0152002 56.81507874 172.24621582 C50.8845321 162.40652013 41.74789214 156.33562427 31.05335999 152.50793457 C26.89184881 151.47892322 22.81392612 151.32727811 18.54945374 151.26184082 C17.07093297 151.22886747 15.59241749 151.19565649 14.11390686 151.16223145 C11.81275992 151.11518967 9.5116287 151.07079254 7.21034241 151.03112793 C-17.43131368 150.58667858 -17.43131368 150.58667858 -28.07164001 145.00793457 C-28.74904236 144.65537598 -29.4264447 144.30281738 -30.12437439 143.9395752 C-42.57620585 137.13795515 -50.35816336 126.06899709 -54.52920532 112.631073 C-56.25108654 105.67678851 -56.2526221 98.84128852 -56.24742126 91.70715332 C-56.25170639 90.39438919 -56.25599152 89.08162506 -56.26040649 87.7290802 C-56.2678266 84.96139463 -56.26760881 82.19383671 -56.26231384 79.42614746 C-56.25653237 75.91303895 -56.27343827 72.40045994 -56.29665852 68.88743877 C-56.31510378 65.49399029 -56.31120709 62.10065136 -56.30992126 58.70715332 C-56.31913101 57.4630217 -56.32834076 56.21889008 -56.33782959 54.9370575 C-56.25295794 38.70461691 -51.67791228 25.65396555 -40.42320251 13.79699707 C-28.68224995 2.94494943 -15.6146515 -0.10734522 0 0 Z " fill="#00B7E8" transform="translate(88.94664001464844,24.4920654296875)"/>
<path d="M0 0 C1.10068817 0.00007553 2.20137634 0.00015106 3.3354187 0.00022888 C5.09355392 0.00797081 5.09355392 0.00797081 6.88720703 0.01586914 C8.09949982 0.01728409 9.3117926 0.01869904 10.56082153 0.02015686 C14.42224626 0.02574194 18.28361241 0.03829178 22.14501953 0.05102539 C24.76741453 0.05604232 27.38981043 0.06060489 30.01220703 0.06469727 C36.43149775 0.0757065 42.85075446 0.09242984 49.27001953 0.11352539 C49.27001953 0.77352539 49.27001953 1.43352539 49.27001953 2.11352539 C48.25423828 2.26047852 47.23845703 2.40743164 46.19189453 2.55883789 C31.79619561 4.82555911 20.01667362 9.68583003 10.52392578 21.23852539 C0.78032912 34.84554317 1.11680589 49.57351142 1.18823242 65.63208008 C1.19179457 67.28569446 1.1948789 68.93930993 1.19752502 70.59292603 C1.20404502 74.13737029 1.21358433 77.68178873 1.22542 81.22621918 C1.24382074 86.84288469 1.25334071 92.4595442 1.26133728 98.07623291 C1.28540605 114.04246732 1.32127608 130.00866397 1.3659668 145.97485352 C1.39060674 154.80569328 1.40791299 163.63651827 1.41752619 172.46738744 C1.42402611 178.03825733 1.43949384 183.60900428 1.46184361 189.17983198 C1.47366872 192.66146024 1.47694648 196.14305966 1.47794151 199.62470627 C1.48006826 201.22494991 1.485587 202.82519369 1.49497223 204.42541122 C1.60480575 223.92584419 -0.18949383 240.05700267 -13.72998047 255.11352539 C-25.58765245 265.852884 -39.03722143 270.00792854 -54.70410156 269.29272461 C-65.61413491 268.32767707 -77.74324515 262.13678992 -85.10888672 254.08227539 C-95.31717812 241.68473595 -98.95028349 230.13840759 -98.79248047 214.17602539 C-98.78571289 212.86408203 -98.78571289 212.86408203 -98.77880859 211.52563477 C-98.76712881 209.38823492 -98.74919736 207.25087076 -98.72998047 205.11352539 C-94.15532307 207.27815007 -91.25938066 209.49362776 -87.72998047 213.11352539 C-82.02017873 217.01290219 -76.54879482 217.8990528 -69.72998047 217.11352539 C-62.38492842 214.92310468 -57.81237903 211.31561818 -53.62440491 204.87579346 C-50.60789026 198.65455567 -51.18309746 191.92800397 -51.23168945 185.16723633 C-51.22786148 183.65844691 -51.22223836 182.14966115 -51.21496582 180.6408844 C-51.20305272 177.40351659 -51.20347559 174.16647334 -51.2135601 170.92910004 C-51.2291868 165.80029243 -51.21539602 160.67181471 -51.19752502 155.54302979 C-51.16675405 145.57463261 -51.16520107 135.6063372 -51.16717529 125.63790131 C-51.16856936 112.96433299 -51.15806572 100.29084365 -51.11859757 87.6173327 C-51.10374269 82.52924085 -51.10387541 77.4414442 -51.1160754 72.35334826 C-51.12081843 69.17442066 -51.11321703 65.99560378 -51.10253143 62.81669426 C-51.10014485 61.35429995 -51.10279054 59.89188636 -51.1111393 58.42951393 C-51.20023395 41.81590373 -47.76987004 26.5092365 -35.98779297 14.14477539 C-25.96050848 5.123689 -13.5028475 -0.03111255 0 0 Z " fill="#00B7E8" transform="translate(330.72998046875,197.886474609375)"/>
<path d="M0 0 C1.87050409 -0.00668677 1.87050409 -0.00668677 3.77879614 -0.01350862 C5.16509975 -0.01341932 6.55140336 -0.01322947 7.93770695 -0.01294994 C9.40857368 -0.01624953 10.87943951 -0.0199753 12.35030419 -0.02409142 C16.39793361 -0.03410906 20.4455482 -0.03782785 24.49318826 -0.04048073 C28.85674029 -0.04438458 33.22028058 -0.05396299 37.58382511 -0.0626936 C48.12587794 -0.08245755 58.66793173 -0.09252494 69.20999846 -0.10142139 C74.17585617 -0.10580512 79.14171282 -0.11117177 84.10756969 -0.11641026 C100.61847144 -0.13342382 117.12937251 -0.147917 133.64028168 -0.155159 C137.92513816 -0.15706886 142.20999465 -0.1589892 146.49485111 -0.16094494 C147.55981916 -0.16142868 148.62478721 -0.16191242 149.72202701 -0.16241082 C166.9657162 -0.17070737 184.20933594 -0.19603739 201.45299482 -0.22852562 C219.16160995 -0.26161742 236.87018981 -0.27960975 254.57883602 -0.28280324 C264.51951215 -0.28496656 274.46008704 -0.293689 284.40073299 -0.31926441 C292.86866343 -0.34100052 301.33646804 -0.34900758 309.80442321 -0.33929763 C314.12200301 -0.33476112 318.43932339 -0.3366011 322.75686741 -0.35605907 C326.71682378 -0.37375064 330.67633261 -0.37264495 334.63629413 -0.35716178 C336.06170474 -0.35479473 337.48714683 -0.35906201 338.91250949 -0.37099043 C355.17284295 -0.49853562 368.99023872 4.01209398 381.07419682 15.09515858 C389.73278192 24.49179355 395.45083236 37.13632481 395.29685307 49.99359608 C394.11998286 60.74591026 390.36358747 71.41662146 383.95310307 80.13422108 C383.27827885 81.07974842 383.27827885 81.07974842 382.58982182 82.04437733 C376.1471604 90.30187295 367.00621865 95.53834616 356.95310307 98.13422108 C353.26560307 98.38422108 353.26560307 98.38422108 350.95310307 98.13422108 C353.29569609 95.79162805 355.43569628 94.93655327 358.45310307 93.57172108 C370.93103039 87.39260359 378.3295644 78.33533244 383.32810307 65.50922108 C386.75251885 54.45121177 386.06284251 41.75308271 381.70310307 31.07172108 C377.72430177 24.39301889 373.71408457 19.10730782 366.95310307 15.13422108 C366.22349369 14.70238514 365.49388432 14.2705492 364.74216557 13.82562733 C353.39406402 7.63742309 341.60719457 6.68812936 328.8972559 6.7667284 C327.41989439 6.76469934 325.94253421 6.76135447 324.46517825 6.75682282 C320.4414787 6.74824376 316.41801314 6.75817528 312.39433408 6.77136517 C308.04124377 6.78232705 303.68817352 6.77584011 299.33507633 6.7715807 C290.82268786 6.76596448 282.31038993 6.77622889 273.79801688 6.79186866 C263.87848062 6.8094534 253.95896164 6.81082886 244.03941223 6.81148425 C226.33956182 6.81317006 208.6397525 6.82895874 190.93991947 6.85297108 C173.77487694 6.87624089 156.60986046 6.89039811 139.44480228 6.8939867 C138.3869489 6.89420947 137.32909551 6.89443224 136.23918596 6.89466175 C134.10802356 6.89510436 131.97686116 6.89554639 129.84569876 6.89598782 C128.79434794 6.89620739 127.74299712 6.89642696 126.65978718 6.89665318 C125.61104513 6.89686916 124.56230307 6.89708515 123.48178096 6.89730768 C107.10617354 6.90101044 90.7305703 6.91236865 74.35496749 6.92478357 C68.42565235 6.92921376 62.4963376 6.93265412 56.56702146 6.9354057 C47.16411537 6.93984263 37.76122476 6.94763257 28.35832843 6.96218011 C24.06355526 6.96877441 19.76879566 6.97385098 15.47401714 6.97464085 C11.54005079 6.97543048 7.60611876 6.98086327 3.6721631 6.98996034 C2.25181074 6.99245861 0.83145427 6.99330578 -0.58889994 6.99230155 C-7.82509379 6.98817468 -14.87319647 7.1528448 -22.04689693 8.13422108 C-22.04689693 7.47422108 -22.04689693 6.81422108 -22.04689693 6.13422108 C-20.13173903 5.31817109 -18.21470859 4.50651476 -16.29689693 3.69672108 C-15.22955318 3.24426014 -14.16220943 2.7917992 -13.06252193 2.32562733 C-8.51787639 0.53013913 -4.90250673 0.00812684 0 0 Z " fill="#06F8FC" transform="translate(80.04689693450928,24.865778923034668)"/>
<path d="M0 0 C6.6 0 13.2 0 20 0 C20 0.66 20 1.32 20 2 C18.98421875 2.14695313 17.9684375 2.29390625 16.921875 2.4453125 C2.52617608 4.71203372 -9.25334591 9.57230464 -18.74609375 21.125 C-28.48969041 34.73201778 -28.15321364 49.45998602 -28.08178711 65.51855469 C-28.07822496 67.17216907 -28.07514063 68.82578454 -28.07249451 70.47940063 C-28.06597451 74.0238449 -28.0564352 77.56826334 -28.04459953 81.11269379 C-28.02619879 86.7293593 -28.01667883 92.34601881 -28.00868225 97.96270752 C-27.98461348 113.92894193 -27.94874345 129.89513858 -27.90405273 145.86132812 C-27.87941279 154.69216789 -27.86210655 163.52299288 -27.85249335 172.35386205 C-27.84599342 177.92473194 -27.83052569 183.49547889 -27.80817592 189.06630659 C-27.79635082 192.54793485 -27.79307305 196.02953427 -27.79207802 199.51118088 C-27.78995127 201.11142452 -27.78443253 202.7116683 -27.7750473 204.31188583 C-27.66521378 223.8123188 -29.45951336 239.94347728 -43 255 C-52.46763163 263.57472625 -62.92110365 268.75354022 -75.796875 268.17578125 C-76.52390625 268.11777344 -77.2509375 268.05976563 -78 268 C-78 267.67 -78 267.34 -78 267 C-77.21238281 266.88785156 -76.42476563 266.77570313 -75.61328125 266.66015625 C-63.82564174 264.52582626 -54.05189675 258.65189744 -46.4921875 249.23046875 C-40.25695438 239.91026427 -36.67112934 230.4363479 -36.7484436 219.19824219 C-36.74547346 218.45540576 -36.74250333 217.71256933 -36.73944318 216.94722271 C-36.7318596 214.48035955 -36.73827399 212.0137385 -36.74462891 209.546875 C-36.74187621 207.7687209 -36.73819462 205.99056804 -36.73365784 204.2124176 C-36.72556608 200.39237811 -36.72337236 196.57239707 -36.72560501 192.75234985 C-36.72844869 186.69837711 -36.71404503 180.64452009 -36.69662476 174.59057617 C-36.64970397 157.37827295 -36.62567545 140.16597764 -36.61914062 122.95361328 C-36.61537635 113.44004107 -36.59723616 103.92660003 -36.56404626 94.41308403 C-36.5439529 88.40952169 -36.54140283 82.40630047 -36.55232644 76.40271854 C-36.55495517 72.64667754 -36.54082457 68.89083031 -36.52224541 65.13484001 C-36.51697502 63.40967457 -36.51833045 61.68447225 -36.52728081 59.95932198 C-36.59581841 45.57389058 -35.71934694 29.55213808 -26 18 C-25.34 18 -24.68 18 -24 18 C-23.73445313 17.40058594 -23.46890625 16.80117187 -23.1953125 16.18359375 C-20.01087146 10.36626519 -12.86618766 5.84143465 -7 3 C-4.59921625 2.38161631 -2.48931191 2.15558199 0 2 C0 1.34 0 0.68 0 0 Z " fill="#03F9FD" transform="translate(360,198)"/>
<path d="M0 0 C0.33 0 0.66 0 1 0 C0.06871122 11.1754654 -6.3370383 19.72377715 -14.40234375 27.23828125 C-27.67582306 37.83710458 -42.66439916 38.73696998 -58.89013672 38.61181641 C-60.8337149 38.61536646 -62.77729006 38.62115422 -64.72085571 38.62898254 C-68.87427577 38.64107415 -73.02728348 38.63779755 -77.18069077 38.62215042 C-83.76519876 38.59762879 -90.34935328 38.60941229 -96.93386841 38.62582397 C-108.54324357 38.65022845 -120.15245493 38.64455176 -131.76184082 38.63201904 C-149.22475932 38.61339627 -166.68764559 38.61846894 -184.15054142 38.65205324 C-190.67872735 38.6634798 -197.20665026 38.65924832 -203.73482108 38.64203286 C-207.81539512 38.63406395 -211.8958947 38.63843086 -215.97646713 38.64574242 C-217.84916697 38.64654387 -219.72187786 38.64231524 -221.59455109 38.63229942 C-230.80392231 38.58547995 -239.7632833 38.86587824 -248.86868286 40.34237671 C-249.59745821 40.45976499 -250.32623356 40.57715328 -251.07709301 40.69809878 C-257.51164807 41.86337806 -262.66916987 44.29035256 -268 48 C-269.051875 48.721875 -270.10375 49.44375 -271.1875 50.1875 C-280.67508221 59.67508221 -286.08833989 70.69887015 -288 84 C-288.33 84 -288.66 84 -289 84 C-290.04566732 71.13248267 -285.64051898 60.20468409 -278 50 C-275.5 47.1875 -275.5 47.1875 -273 45 C-272.52433594 44.52175781 -272.04867187 44.04351562 -271.55859375 43.55078125 C-256.75285692 29.38722096 -233.87841648 30.84230773 -214.92114258 30.98168945 C-213.00462106 30.99180945 -211.08809659 31.00138206 -209.17156982 31.01045227 C-205.06183517 31.03047399 -200.95212721 31.05318344 -196.84241676 31.07766151 C-190.33041099 31.11525037 -183.81839768 31.13952706 -177.30632019 31.16069031 C-175.65268934 31.16614639 -175.65268934 31.16614639 -173.96565181 31.1717127 C-171.71229119 31.17911777 -169.45893046 31.18649026 -167.20556962 31.19383085 C-152.06033953 31.24366106 -136.91527993 31.301946 -121.77026367 31.39770508 C-111.53269895 31.46233494 -101.29528959 31.50535199 -91.0575344 31.52386063 C-85.6511326 31.53448988 -80.24527011 31.55587904 -74.83905983 31.60381508 C-69.74906959 31.64878667 -64.65975912 31.66507072 -59.56958008 31.66035271 C-57.71373914 31.66357037 -55.85788017 31.67691207 -54.00220299 31.7017746 C-38.77405969 31.89641138 -24.97808634 29.63609522 -13.11328125 19.20703125 C-7.68733702 13.5403797 -3.7285171 6.86047146 0 0 Z " fill="#004D71" transform="translate(471,92)"/>
<path d="M0 0 C-2.19978339 2.19978339 -4.05650486 3.02870474 -6.875 4.3125 C-14.21866953 7.97378352 -16.71193908 12.51818299 -19.296875 20.16015625 C-20.77233924 26.11939236 -19.90638255 30.85562929 -16.9375 36.1875 C-11.78255927 43.35653478 -6.05081224 46.47017802 2.57763672 47.94799805 C3.6038916 48.10953369 4.63014648 48.27106934 5.6875 48.4375 C21.56173925 51.37383795 32.42855118 57.02178969 42.5859375 70.03125 C48.0699762 78.14097996 51.13554521 87.95347282 51.11352539 97.70825195 C51.11341209 99.38942863 51.11341209 99.38942863 51.11329651 101.10456848 C51.10813522 102.3036937 51.10297394 103.50281891 51.09765625 104.73828125 C51.0962413 105.97418503 51.09482635 107.21008881 51.09336853 108.48344421 C51.08872618 111.75658345 51.07975311 115.02967287 51.06866455 118.30279541 C51.05840404 121.64782248 51.05394631 124.99285173 51.04882812 128.33789062 C51.03780907 134.8919465 51.02107836 141.44596918 51 148 C50.34 148 49.68 148 49 148 C48.82984375 147.02160156 48.6596875 146.04320312 48.484375 145.03515625 C48.24017275 143.71082868 47.99534718 142.38661594 47.75 141.0625 C47.51796875 139.77472656 47.2859375 138.48695313 47.046875 137.16015625 C46.40716589 134.12528209 45.39550154 131.7850543 43.9296875 129.0625 C40.7258016 122.1893387 41.39396356 114.37042657 41.375 106.9375 C41.35853825 104.65488436 41.33626978 102.37266489 41.30337524 100.09022522 C41.28407906 98.6800402 41.27437311 97.26967523 41.27645874 95.85935974 C41.16433157 85.36914076 37.35301567 74.99004235 30.4375 67.0625 C29.633125 66.381875 28.82875 65.70125 28 65 C27.29875 64.154375 26.5975 63.30875 25.875 62.4375 C18.0050236 55.7651287 7.68641913 55.18964028 -2.20678711 54.12646484 C-10.46623114 53.18256981 -15.91972434 50.64597026 -22 45 C-22 44.34 -22 43.68 -22 43 C-22.66 43 -23.32 43 -24 43 C-28.57940146 34.41628471 -28.57940146 34.41628471 -29 30 C-29.07476562 29.29359375 -29.14953125 28.5871875 -29.2265625 27.859375 C-29.69659791 19.99246658 -27.44699816 13.20824589 -22.42578125 7.078125 C-16.03937708 1.0638889 -8.52602086 -0.46505568 0 0 Z " fill="#0AF7FA" transform="translate(105,75)"/>
<path d="M0 0 C1.87050409 -0.00668677 1.87050409 -0.00668677 3.77879614 -0.01350862 C5.16509975 -0.01341932 6.55140336 -0.01322947 7.93770695 -0.01294994 C9.40857368 -0.01624953 10.87943951 -0.0199753 12.35030419 -0.02409142 C16.39793361 -0.03410906 20.4455482 -0.03782785 24.49318826 -0.04048073 C28.85674029 -0.04438458 33.22028058 -0.05396299 37.58382511 -0.0626936 C48.12587794 -0.08245755 58.66793173 -0.09252494 69.20999846 -0.10142139 C74.17585617 -0.10580512 79.14171282 -0.11117177 84.10756969 -0.11641026 C100.61847144 -0.13342382 117.12937251 -0.147917 133.64028168 -0.155159 C137.92513816 -0.15706886 142.20999465 -0.1589892 146.49485111 -0.16094494 C147.55981916 -0.16142868 148.62478721 -0.16191242 149.72202701 -0.16241082 C166.9657162 -0.17070737 184.20933594 -0.19603739 201.45299482 -0.22852562 C219.16160995 -0.26161742 236.87018981 -0.27960975 254.57883602 -0.28280324 C264.51951215 -0.28496656 274.46008704 -0.293689 284.40073299 -0.31926441 C292.86866343 -0.34100052 301.33646804 -0.34900758 309.80442321 -0.33929763 C314.12200301 -0.33476112 318.43932339 -0.3366011 322.75686741 -0.35605907 C326.71682378 -0.37375064 330.67633261 -0.37264495 334.63629413 -0.35716178 C336.06170474 -0.35479473 337.48714683 -0.35906201 338.91250949 -0.37099043 C350.15223066 -0.4591542 360.33504823 0.97926169 369.95310307 7.13422108 C369.29310307 7.46422108 368.63310307 7.79422108 367.95310307 8.13422108 C366.20376753 7.38828814 364.48282823 6.57543873 362.77722645 5.73430061 C355.40978253 2.57320925 348.67164127 2.44664657 340.76712894 2.53294849 C339.26358994 2.5307638 337.76005283 2.52637799 336.25652575 2.52000266 C332.15601985 2.50889753 328.0561751 2.52871737 323.95575333 2.55389297 C319.52238636 2.57558842 315.08905339 2.56817115 310.65564823 2.5643816 C302.98481587 2.56176633 295.31419699 2.57738569 287.64341831 2.60557079 C276.55294774 2.64629439 265.46257986 2.65923707 254.37204263 2.66551075 C236.37621788 2.67644005 218.38050677 2.70967718 200.38474369 2.75702381 C182.908838 2.80295474 165.43296323 2.83832935 147.95700932 2.85956287 C146.33979974 2.8615333 146.33979974 2.8615333 144.68991926 2.86354353 C139.28093328 2.87006896 133.87194707 2.87638744 128.46296072 2.88260305 C83.62626281 2.93439356 38.78968882 3.02242164 -6.04689693 3.13422108 C-6.37689693 4.12422108 -6.70689693 5.11422108 -7.04689693 6.13422108 C-8.60806512 6.47373727 -10.17091032 6.80554652 -11.73439693 7.13422108 C-13.03957272 7.41265858 -13.03957272 7.41265858 -14.37111568 7.69672108 C-16.98402657 8.12394154 -19.40502732 8.21038308 -22.04689693 8.13422108 C-22.04689693 7.47422108 -22.04689693 6.81422108 -22.04689693 6.13422108 C-20.13173903 5.31817109 -18.21470859 4.50651476 -16.29689693 3.69672108 C-15.22955318 3.24426014 -14.16220943 2.7917992 -13.06252193 2.32562733 C-8.51787639 0.53013913 -4.90250673 0.00812684 0 0 Z " fill="#31E7EA" transform="translate(80.04689693450928,24.865778923034668)"/>
<path d="M0 0 C1.30090073 -0.00175232 2.60180145 -0.00350464 3.94212341 -0.00531006 C7.48216928 -0.00983319 11.02218569 -0.00811463 14.56223202 -0.00493097 C18.30037952 -0.0023743 22.03852474 -0.00475462 25.77667236 -0.00631714 C32.06417282 -0.00813196 38.3516615 -0.00575342 44.63916016 -0.00097656 C51.84563011 0.00443625 59.05207163 0.00272244 66.25854087 -0.00280297 C72.49431717 -0.00738805 78.73008506 -0.0079578 84.96586251 -0.0053643 C88.66812111 -0.00382715 92.37036652 -0.00353493 96.07262421 -0.00690079 C112.91915624 -0.02018714 129.71491645 0.20872311 146.54003906 1.12939453 C146.54003906 1.45939453 146.54003906 1.78939453 146.54003906 2.12939453 C94.40003906 2.12939453 42.26003906 2.12939453 -11.45996094 2.12939453 C-11.78996094 3.44939453 -12.11996094 4.76939453 -12.45996094 6.12939453 C-16.43518221 7.97833466 -20.5278143 8.49546743 -24.83007812 9.06640625 C-33.41620438 10.22605794 -40.23396734 12.1009303 -47.45996094 17.12939453 C-48.51183594 17.85126953 -49.56371094 18.57314453 -50.64746094 19.31689453 C-60.13504315 28.80447675 -65.54830082 39.82826468 -67.45996094 53.12939453 C-67.78996094 53.12939453 -68.11996094 53.12939453 -68.45996094 53.12939453 C-69.50562826 40.2618772 -65.10047992 29.33407862 -57.45996094 19.12939453 C-54.95996094 16.31689453 -54.95996094 16.31689453 -52.45996094 14.12939453 C-51.98429687 13.65115234 -51.50863281 13.17291016 -51.01855469 12.68017578 C-37.64564457 -0.1127045 -17.29169421 -0.02903873 0 0 Z " fill="#155876" transform="translate(250.4599609375,122.87060546875)"/>
<path d="M0 0 C0.33 0 0.66 0 1 0 C0.06871122 11.1754654 -6.3370383 19.72377715 -14.40234375 27.23828125 C-27.66218741 37.82621656 -42.6006435 38.73588675 -58.80859375 38.56762695 C-60.74196333 38.56621302 -62.67533558 38.56701519 -64.60870361 38.56983948 C-69.80617887 38.57126156 -75.00306548 38.5420694 -80.20040512 38.50696969 C-85.65090623 38.47550278 -91.10142401 38.47275953 -96.55200195 38.46684265 C-106.85056114 38.45136358 -117.14885181 38.41041612 -127.44729328 38.3600952 C-139.18138125 38.30401606 -150.91548272 38.2766687 -162.64967155 38.25161803 C-186.766596 38.1994945 -210.88328289 38.1116687 -235 38 C-235 37.67 -235 37.34 -235 37 C-171.31 37 -107.62 37 -42 37 C-42.33 36.01 -42.66 35.02 -43 34 C-49.93 33.67 -56.86 33.34 -64 33 C-64 32.67 -64 32.34 -64 32 C-63.26587891 32.00112793 -62.53175781 32.00225586 -61.77539062 32.00341797 C-43.63683789 31.93811009 -27.37335215 31.74151374 -13.11328125 19.20703125 C-7.68733702 13.5403797 -3.7285171 6.86047146 0 0 Z " fill="#005580" transform="translate(471,92)"/>
<path d="M0 0 C0.33 0.66 0.66 1.32 1 2 C0.67 2.99 0.34 3.98 0 5 C-0.09803809 7.69246015 -0.13906161 10.35897875 -0.13371277 13.05155945 C-0.13597833 13.88152288 -0.13824388 14.71148631 -0.14057809 15.56660014 C-0.14692652 18.35780928 -0.14608818 21.14896997 -0.14526367 23.94018555 C-0.14825471 25.93747521 -0.15165711 27.93476429 -0.15544128 29.93205261 C-0.16429288 35.3661262 -0.16661993 40.80018404 -0.16725707 46.23426414 C-0.16820567 50.76938634 -0.17188354 55.30450487 -0.17542917 59.83962566 C-0.18357875 70.54144178 -0.18601301 81.24324949 -0.18530273 91.94506836 C-0.18470235 102.98365974 -0.19524514 114.02220218 -0.2110464 125.06078118 C-0.22412644 134.53604986 -0.22948641 144.01130256 -0.22884732 153.48658019 C-0.2285924 159.14636663 -0.23144041 164.80610963 -0.24202538 170.46588707 C-0.25171367 175.79199341 -0.25178046 181.11801487 -0.24450874 186.44412422 C-0.2434637 188.39679971 -0.24582105 190.34948051 -0.2518692 192.30214691 C-0.25960364 194.97270478 -0.25493463 197.64297061 -0.24723816 200.31352234 C-0.25238172 201.0819267 -0.25752529 201.85033106 -0.26282471 202.6420204 C-0.23056891 207.72497991 0.60676364 212.10785403 2 217 C0.0625 216.4375 0.0625 216.4375 -2 215 C-3.03796481 209.87275533 -3.14640796 204.78624411 -3.14044189 199.57458496 C-3.14341302 198.75274892 -3.14638414 197.93091289 -3.1494453 197.08417273 C-3.15808132 194.34451613 -3.15963617 191.60490348 -3.16113281 188.86523438 C-3.16576441 186.89528816 -3.17078953 184.92534285 -3.17617798 182.95539856 C-3.18926665 177.61460464 -3.19573944 172.27382327 -3.20018864 166.93301582 C-3.20312365 163.5952907 -3.20722915 160.25756898 -3.21169281 156.91984558 C-3.22535527 146.4733979 -3.23502939 136.02695803 -3.2388947 125.58050203 C-3.24337962 113.52678482 -3.26095292 101.47318077 -3.2898953 89.41949797 C-3.31150438 80.09617998 -3.32159849 70.77289387 -3.32293582 61.44955111 C-3.32398393 55.88316777 -3.32989373 50.316891 -3.34775543 44.75053406 C-3.36422379 39.51709606 -3.36639758 34.28384491 -3.35761642 29.05039024 C-3.35684553 27.1311512 -3.36119568 25.21190215 -3.37107468 23.29268837 C-3.38378196 20.67004141 -3.3779242 18.04805756 -3.36749268 15.42541504 C-3.37554908 14.66849916 -3.38360548 13.91158328 -3.39190602 13.13173056 C-3.34406513 7.97885421 -2.24967971 4.52882875 0 0 Z " fill="#2281B2" transform="translate(234,188)"/>
<path d="M0 0 C0.33 0 0.66 0 1 0 C1.75 2.75 1.75 2.75 2 6 C1.0409375 6.8353125 1.0409375 6.8353125 0.0625 7.6875 C-2.97108347 11.08879056 -2.26132118 14.13660531 -2.04296875 18.5390625 C-2 21 -2 21 -3 23 C-3.10323385 24.82572803 -3.1422198 26.65522012 -3.15148926 28.48384094 C-3.15983292 29.64893188 -3.16817657 30.81402283 -3.17677307 32.01441956 C-3.1830497 33.94147987 -3.1830497 33.94147987 -3.18945312 35.9074707 C-3.19739346 37.26909645 -3.20578125 38.63071965 -3.21458435 39.99234009 C-3.23266089 42.92850826 -3.24766975 45.86467074 -3.26036072 48.80086708 C-3.28056335 53.44411941 -3.30821991 58.08730876 -3.33703613 62.73051453 C-3.3971717 72.59114682 -3.44896399 82.45181706 -3.5 92.3125 C-3.55508211 102.94679912 -3.61163187 113.5810791 -3.67754889 124.21531743 C-3.70587311 128.83023108 -3.72947891 133.44513755 -3.74947357 138.06009448 C-3.76288209 140.93383319 -3.78029387 143.80753763 -3.79878426 146.68124771 C-3.81021431 148.64714705 -3.81679331 150.61307271 -3.82322693 152.57899475 C-3.83157059 153.75254517 -3.83991425 154.92609558 -3.84851074 156.13520813 C-3.85366447 157.15303533 -3.85881821 158.17086252 -3.86412811 159.21953297 C-3.99565127 161.91100804 -4.39703323 164.37754117 -5 167 C-5.33 167 -5.66 167 -6 167 C-6.07022805 147.9104703 -6.12305557 128.82096699 -6.15543652 109.73133469 C-6.17087433 100.86674417 -6.19190454 92.00223415 -6.22631836 83.13769531 C-6.25631553 75.4071094 -6.2755974 67.67658181 -6.28226548 59.9459393 C-6.28616034 55.85647179 -6.2952487 51.76717107 -6.31719017 47.67775726 C-6.33771879 43.820012 -6.34380114 39.96250051 -6.33932304 36.10470581 C-6.34014099 34.69713313 -6.34600845 33.28955173 -6.35761642 31.88202667 C-6.44686435 20.49097925 -4.92900816 10.32744567 0 0 Z " fill="#1FB7DB" transform="translate(286,224)"/>
<path d="M0 0 C101.31 0 202.62 0 307 0 C307 1.32 307 2.64 307 4 C306.09726317 3.6757435 305.19452635 3.35148701 304.26443386 3.01740456 C298.84195783 1.48267965 293.36348844 1.71208967 287.76905823 1.7215271 C286.53801155 1.7157347 285.30696486 1.7099423 284.03861374 1.70397437 C280.63389649 1.68993791 277.22937566 1.68474614 273.82464373 1.68332577 C270.1484987 1.67962401 266.47239858 1.66446466 262.79627991 1.65071106 C256.431229 1.62845877 250.06619411 1.61343328 243.70111275 1.60334396 C234.49832823 1.5887461 225.29559954 1.56320616 216.09284782 1.53501268 C201.16127857 1.48956482 186.22970128 1.45294171 171.2980957 1.421875 C156.79515165 1.39168124 142.29222726 1.35732717 127.78930664 1.31738281 C126.89504703 1.31492126 126.00078742 1.31245972 125.07942904 1.30992357 C120.59310191 1.29754881 116.10677502 1.28509231 111.62044823 1.27259517 C74.41365931 1.1690574 37.20684694 1.07984424 0 1 C0 0.67 0 0.34 0 0 Z " fill="#2EB2D4" transform="translate(105,75)"/>
<path d="M0 0 C6.6 0 13.2 0 20 0 C20 0.66 20 1.32 20 2 C18.47632813 2.22042969 18.47632813 2.22042969 16.921875 2.4453125 C2.52617608 4.71203372 -9.25334591 9.57230464 -18.74609375 21.125 C-23.77364826 28.14602375 -27.06908763 36.3890606 -28 45 C-28.33 45 -28.66 45 -29 45 C-29 41.7 -29 38.4 -29 35 C-28.34 35 -27.68 35 -27 35 C-27 34.38511719 -27 33.77023438 -27 33.13671875 C-27 23 -27 23 -25 20 C-24.79375 19.2575 -24.5875 18.515 -24.375 17.75 C-21.12209992 11.24419984 -13.48906091 6.08327149 -7 3 C-4.5999778 2.38519355 -2.48760303 2.15547519 0 2 C0 1.34 0 0.68 0 0 Z " fill="#14F3F4" transform="translate(360,198)"/>
<path d="M0 0 C0.99 0.495 0.99 0.495 2 1 C-0.53436298 3.98880048 -3.27779824 5.16279579 -6.875 6.625 C-7.90367187 7.05039063 -8.93234375 7.47578125 -9.9921875 7.9140625 C-15.51916928 9.90951826 -20.66005412 10.14165022 -26.49775696 10.12025452 C-27.77823348 10.12153615 -27.77823348 10.12153615 -29.08457822 10.12284368 C-31.94353251 10.12449013 -34.80242807 10.11899077 -37.66137695 10.11352539 C-39.71134947 10.11324331 -41.76132209 10.11340166 -43.81129456 10.1139679 C-49.37694551 10.11425507 -54.94257496 10.10837126 -60.50822091 10.10139394 C-66.32450518 10.09514708 -72.14078992 10.09455554 -77.95707703 10.09336853 C-88.9712811 10.09025915 -99.98547527 10.08205105 -110.99967498 10.07201904 C-123.5388497 10.06084571 -136.07802489 10.05534437 -148.61720335 10.05032361 C-174.4114744 10.03986813 -200.20573665 10.02227628 -226 10 C-226 9.67 -226 9.34 -226 9 C-220.47031126 8.21608601 -215.13308708 7.85718214 -209.55285645 7.87542725 C-208.74059963 7.8740171 -207.92834281 7.87260695 -207.09147215 7.87115407 C-204.38973965 7.86752573 -201.68806047 7.87082696 -198.98632812 7.87402344 C-197.04068969 7.87262735 -195.09505156 7.87072718 -193.14941406 7.86836243 C-188.96761328 7.86387632 -184.78582229 7.86200958 -180.60401917 7.86190033 C-173.97878556 7.86075596 -167.35360718 7.8478873 -160.72839355 7.83233643 C-159.6079995 7.82976357 -158.48760545 7.82719072 -157.33326006 7.8245399 C-155.04254655 7.81927355 -152.75183308 7.81398807 -150.46111965 7.80868387 C-135.04633673 7.77364615 -119.63162298 7.74701837 -104.21679688 7.74951172 C-93.80666274 7.751105 -83.39671782 7.7349558 -72.98664427 7.69880509 C-67.48644672 7.68042229 -61.98656481 7.67093499 -56.48634338 7.68328094 C-51.30523788 7.69479829 -46.12469562 7.68282679 -40.94366455 7.65364647 C-39.05402134 7.64705892 -37.16432569 7.64878043 -35.27470398 7.65994453 C-23.43559441 7.72402601 -12.99546162 6.65647912 -2 2 C-1.34 1.34 -0.68 0.68 0 0 Z " fill="#0676B4" transform="translate(450,122)"/>
<path d="M0 0 C1.8731415 2.80971225 2.63725024 4.82443066 3.625 8 C7.47480285 18.77944797 15.03596198 28.42700187 25.2890625 33.6875 C27.56035944 34.73501611 29.84499392 35.75430572 32.14453125 36.73828125 C35 38 35 38 38 40 C24.55349305 41.20502125 24.55349305 41.20502125 19 36.9375 C17.62285729 35.67104353 16.28695118 34.35800983 15 33 C14.37996094 32.35546875 13.75992188 31.7109375 13.12109375 31.046875 C9 26.49550464 9 26.49550464 9 24 C8.34 24 7.68 24 7 24 C-1.03644647 8.43963554 -1.03644647 8.43963554 0 0 Z " fill="#01507A" transform="translate(232,426)"/>
<path d="M0 0 C1.11507017 3.34521051 0.9313736 5.61318693 0 9 C-0.33949677 9.56398499 -0.67899353 10.12796997 -1.02877808 10.70904541 C-2.3905171 13.92116633 -2.23906294 16.67174861 -2.22705078 20.15527344 C-2.22734283 20.86786819 -2.22763489 21.58046295 -2.22793579 22.31465149 C-2.22654577 24.66301781 -2.21100022 27.01106431 -2.1953125 29.359375 C-2.1915812 30.99033434 -2.18873478 32.62129592 -2.18673706 34.2522583 C-2.1791098 38.53979711 -2.15946912 42.8271999 -2.1373291 47.11468506 C-2.11685112 51.49180257 -2.10773117 55.86894212 -2.09765625 60.24609375 C-2.07622235 68.83079151 -2.04209739 77.41537882 -2 86 C-4.7214183 81.10144706 -5.12464133 76.56190554 -5.16113281 71.02319336 C-5.17074036 69.84103745 -5.1803479 68.65888153 -5.19024658 67.44090271 C-5.19449646 66.17005325 -5.19874634 64.8992038 -5.203125 63.58984375 C-5.20882507 62.27141983 -5.21452515 60.95299591 -5.22039795 59.59461975 C-5.23088389 56.80306618 -5.23674115 54.01154117 -5.24023438 51.2199707 C-5.24569068 47.67539444 -5.26966666 44.13120781 -5.29820633 40.58675289 C-5.31701273 37.83347038 -5.32204792 35.08027798 -5.32357025 32.32693672 C-5.32799822 30.39515324 -5.34656076 28.46341835 -5.36553955 26.53172302 C-5.34248521 17.28093742 -4.46600125 8.26661648 0 0 Z " fill="#2DB2D4" transform="translate(38,53)"/>
<path d="M0 0 C0.495 1.485 0.495 1.485 1 3 C1.99 3.66 2.98 4.32 4 5 C-1.92703004 13.3795942 -12.04253928 19.56595405 -22 22 C-26.02761542 22.29144074 -29.97160637 22.24917899 -34 22 C-34 21.67 -34 21.34 -34 21 C-33.21238281 20.88785156 -32.42476563 20.77570313 -31.61328125 20.66015625 C-17.95010531 18.18623209 -8.4585025 10.80950621 0 0 Z " fill="#14F3F5" transform="translate(316,444)"/>
<path d="M0 0 C6.6 0 13.2 0 20 0 C20 0.66 20 1.32 20 2 C18.94941406 2.17015625 17.89882813 2.3403125 16.81640625 2.515625 C9.66918742 3.7315207 3.3587394 4.97800921 -3.16015625 8.28125 C-5.96417216 9.37666174 -8.19130539 8.86421373 -11 8 C-11.598125 8.825 -12.19625 9.65 -12.8125 10.5 C-13.534375 11.325 -14.25625 12.15 -15 13 C-18 13 -18 13 -20 12 C-18.2758698 10.70161824 -16.54546768 9.41156253 -14.8125 8.125 C-13.84957031 7.40570313 -12.88664062 6.68640625 -11.89453125 5.9453125 C-7.70599049 3.13034179 -5.07407522 2 0 2 C0 1.34 0 0.68 0 0 Z " fill="#0BF4FD" transform="translate(360,198)"/>
<path d="M0 0 C0.33 0 0.66 0 1 0 C1 17.49 1 34.98 1 53 C0.34 53 -0.32 53 -1 53 C-2.33333333 46.33333333 -3.66666667 39.66666667 -5 33 C-4.34 33.33 -3.68 33.66 -3 34 C-2.67 34.99 -2.34 35.98 -2 37 C0.03123075 34.96876925 -0.74330382 30.82231134 -0.68359375 28.02734375 C-0.66281265 27.22970108 -0.64203156 26.43205841 -0.62062073 25.61024475 C-0.55503842 23.05275389 -0.49620033 20.4951572 -0.4375 17.9375 C-0.39432301 16.20767118 -0.35070899 14.47785321 -0.30664062 12.74804688 C-0.19934828 8.4988074 -0.09810574 4.2494611 0 0 Z " fill="#30DEE2" transform="translate(155,170)"/>
<path d="M0 0 C0.33 0.66 0.66 1.32 1 2 C-0.2065625 2.6496875 -0.2065625 2.6496875 -1.4375 3.3125 C-4.27846354 4.80474002 -4.27846354 4.80474002 -5 8 C-5.99 8.33 -6.98 8.66 -8 9 C-8.33 8.01 -8.66 7.02 -9 6 C-13.14670039 8.37629089 -13.14670039 8.37629089 -16 12 C-16.66 12 -17.32 12 -18 12 C-18.66 13.65 -19.32 15.3 -20 17 C-20.66 17 -21.32 17 -22 17 C-22 17.99 -22 18.98 -22 20 C-22.66 20 -23.32 20 -24 20 C-24.28875 20.804375 -24.5775 21.60875 -24.875 22.4375 C-26 25 -26 25 -28 26 C-27.69706599 19.94131974 -25.06626632 16.25762003 -21 12 C-14.60129032 6.48387097 -8.01528432 2.64278355 0 0 Z " fill="#104D6C" transform="translate(217,126)"/>
<path d="M0 0 C1.8731415 2.80971225 2.63725024 4.82443066 3.625 8 C5.91507277 14.5468111 9.70869233 19.61503383 14 25 C12.02 25.99 12.02 25.99 10 27 C9.67 26.01 9.34 25.02 9 24 C8.34 24 7.68 24 7 24 C-1.03644647 8.43963554 -1.03644647 8.43963554 0 0 Z " fill="#005A88" transform="translate(232,426)"/>
<path d="M0 0 C0.75 1.6875 0.75 1.6875 1 4 C-0.32810215 5.67083819 -1.66172696 7.33729713 -3 9 C-3.25124826 11.66761764 -3.25124826 11.66761764 -3 14 C-3.33 14.33 -3.66 14.66 -4 15 C-2.68 15.66 -1.36 16.32 0 17 C-5.61 17 -11.22 17 -17 17 C-15.74179908 14.48359816 -14.85906031 14.38448062 -12.3125 13.3125 C-6.34620772 10.45253584 -2.77685373 5.91703412 0 0 Z " fill="#12B4DD" transform="translate(422,107)"/>
<path d="M0 0 C0.66 0.33 1.32 0.66 2 1 C2.12815816 12.1863767 -0.71627399 21.46772238 -8.57421875 29.6953125 C-9.37472656 30.45585938 -10.17523438 31.21640625 -11 32 C-11.845625 32.94875 -12.69125 33.8975 -13.5625 34.875 C-14.366875 35.57625 -15.17125 36.2775 -16 37 C-18.15234375 36.6328125 -18.15234375 36.6328125 -20 36 C-19.14728516 35.41605469 -19.14728516 35.41605469 -18.27734375 34.8203125 C-10.26215101 29.01297752 -4.0053493 21.54640367 -1 12 C-0.82175708 9.30598566 -0.91126591 6.70638959 -1 4 C-0.5 1.5 -0.5 1.5 0 0 Z " fill="#0579B0" transform="translate(472,85)"/>
<path d="M0 0 C0.515625 0.2475 1.03125 0.495 1.5625 0.75 C0.05820399 5.26288804 -3.45853926 7.49790822 -7.4375 9.75 C-9.77437331 10.63312073 -11.99033878 11.20063728 -14.4375 11.75 C-14.4375 11.09 -14.4375 10.43 -14.4375 9.75 C-13.6125 9.275625 -12.7875 8.80125 -11.9375 8.3125 C-10.7 7.5390625 -10.7 7.5390625 -9.4375 6.75 C-9.4375 5.76 -9.4375 4.77 -9.4375 3.75 C-3.0375 -0.31153846 -3.0375 -0.31153846 0 0 Z " fill="#005179" transform="translate(455.4375,115.25)"/>
<path d="M0 0 C1.68496298 0.96885372 3.35178756 1.96986723 5 3 C5 3.33 5 3.66 5 4 C-0.15949111 4.04960315 -5.318842 4.08581559 -10.47851562 4.10986328 C-12.23212097 4.11989313 -13.9857097 4.13352029 -15.73925781 4.15087891 C-18.26631785 4.1752603 -20.7931559 4.1865134 -23.3203125 4.1953125 C-24.48785568 4.21079636 -24.48785568 4.21079636 -25.6789856 4.22659302 C-30.18365862 4.2275122 -33.75439088 3.70651048 -38 2 C-34.98968256 1.06576355 -34.13349732 0.95550089 -31 2 C-28.6444552 2.15179014 -26.28524877 2.24899289 -23.92578125 2.31640625 C-23.2419487 2.33718735 -22.55811615 2.35796844 -21.8535614 2.37937927 C-19.6733079 2.44466154 -17.49293595 2.50366017 -15.3125 2.5625 C-13.83267014 2.60570553 -12.35285217 2.64932047 -10.87304688 2.69335938 C-7.24882378 2.80032083 -3.62446811 2.90164823 0 3 C0 2.01 0 1.02 0 0 Z " fill="#167EB6" transform="translate(251,462)"/>
<path d="M0 0 C1 3 1 3 0.37915039 4.80932617 C0.03875732 5.46392822 -0.30163574 6.11853027 -0.65234375 6.79296875 C-1.01650391 7.50517578 -1.38066406 8.21738281 -1.75585938 8.95117188 C-2.14580078 9.68916016 -2.53574219 10.42714844 -2.9375 11.1875 C-3.51661133 12.31188477 -3.51661133 12.31188477 -4.10742188 13.45898438 C-5.06271757 15.31060689 -6.03021577 17.15592452 -7 19 C-7.33 19 -7.66 19 -8 19 C-7.67 15.37 -7.34 11.74 -7 8 C-5.35 7.34 -3.7 6.68 -2 6 C-2 4.68 -2 3.36 -2 2 C-1.34 2 -0.68 2 0 2 C0 1.34 0 0.68 0 0 Z " fill="#1280B8" transform="translate(472,136)"/>
<path d="M0 0 C0.66 0.33 1.32 0.66 2 1 C0.33015476 4.2469213 -1.27248994 6.31498677 -4.1875 8.4375 C-7.33937155 10.74408788 -7.33937155 10.74408788 -7.375 14.3125 C-7.25125 15.199375 -7.1275 16.08625 -7 17 C-8.65 17 -10.3 17 -12 17 C-10.67191342 11.85557267 -8.5159936 8.95271122 -4.875 5.125 C-4.40707031 4.62742187 -3.93914063 4.12984375 -3.45703125 3.6171875 C-2.31322699 2.40335441 -1.15778377 1.20050642 0 0 Z " fill="#25B0DA" transform="translate(51,36)"/>
<path d="M0 0 C6.6 0 13.2 0 20 0 C20 0.66 20 1.32 20 2 C11.09 3.485 11.09 3.485 2 5 C2.33 4.34 2.66 3.68 3 3 C3.99 3 4.98 3 6 3 C6 2.34 6 1.68 6 1 C4.02 1 2.04 1 0 1 C0 0.67 0 0.34 0 0 Z " fill="#4AE5EC" transform="translate(360,198)"/>
<path d="M0 0 C0.66 0 1.32 0 2 0 C0.82744291 3.33727786 -0.18868404 5.77437487 -3 8 C-3.66 8 -4.32 8 -5 8 C-5 8.99 -5 9.98 -5 11 C-5.66 11 -6.32 11 -7 11 C-7.103125 12.11375 -7.20625 13.2275 -7.3125 14.375 C-7.6528125 16.169375 -7.6528125 16.169375 -8 18 C-8.99 18.66 -9.98 19.32 -11 20 C-9.21664791 11.8645176 -5.91064008 5.91064008 0 0 Z " fill="#0679B5" transform="translate(196,146)"/>
<path d="M0 0 C8.415 1.485 8.415 1.485 17 3 C17 3.33 17 3.66 17 4 C14.89627599 4.33611568 12.79200343 4.66879946 10.6875 5 C8.92986328 5.2784375 8.92986328 5.2784375 7.13671875 5.5625 C4 6 4 6 1 6 C0.67 4.02 0.34 2.04 0 0 Z " fill="#16EFF4" transform="translate(98,121)"/>
<path d="M0 0 C0.99 0.33 1.98 0.66 3 1 C2.34 1 1.68 1 1 1 C0.34 2.65 -0.32 4.3 -1 6 C-1.66 6 -2.32 6 -3 6 C-3 6.99 -3 7.98 -3 9 C-3.66 9 -4.32 9 -5 9 C-5.28875 9.804375 -5.5775 10.60875 -5.875 11.4375 C-7 14 -7 14 -9 15 C-8.70234328 9.04686566 -5.86697547 5.29777911 -2 1 C-1.34 0.67 -0.68 0.34 0 0 Z " fill="#084868" transform="translate(198,137)"/>
<path d="M0 0 C0.33 0 0.66 0 1 0 C0.5188509 5.77378925 -1.18467181 9.95859836 -4 15 C-5.32 14.34 -6.64 13.68 -8 13 C-7.04258894 11.39528272 -6.08403595 9.79124671 -5.125 8.1875 C-4.59132813 7.29417969 -4.05765625 6.40085937 -3.5078125 5.48046875 C-2.38116908 3.62705276 -1.20313389 1.80470083 0 0 Z " fill="#006387" transform="translate(471,92)"/>
<path d="M0 0 C7.75 0.875 7.75 0.875 10 2 C10 2.66 10 3.32 10 4 C12.31 4 14.62 4 17 4 C16.67 4.66 16.34 5.32 16 6 C14.10306139 5.71561048 12.20747973 5.42216208 10.3125 5.125 C9.25675781 4.96257812 8.20101562 4.80015625 7.11328125 4.6328125 C4.20205086 4.04106931 1.71044393 3.1968194 -1 2 C-0.67 1.34 -0.34 0.68 0 0 Z " fill="#20B3DB" transform="translate(65,169)"/>
<path d="M0 0 C0.33 0 0.66 0 1 0 C1.33266291 6.20970773 0.45029331 10.28264895 -2 16 C-2.99 16 -3.98 16 -5 16 C-5 16.99 -5 17.98 -5 19 C-6.65 19.33 -8.3 19.66 -10 20 C-9.60167969 19.57589844 -9.20335937 19.15179688 -8.79296875 18.71484375 C-3.68451782 13.0595027 -0.93530718 7.66951886 0 0 Z " fill="#26B0D6" transform="translate(280,392)"/>
<path d="M0 0 C0.66 1.65 1.32 3.3 2 5 C-2.95 4.67 -7.9 4.34 -13 4 C-8.19183282 0.39387462 -5.83154185 -0.12958982 0 0 Z " fill="#1DB1D9" transform="translate(118,171)"/>
<path d="M0 0 C0.33 0 0.66 0 1 0 C1.75 2.75 1.75 2.75 2 6 C1.38125 6.598125 0.7625 7.19625 0.125 7.8125 C-3.04831744 11.07915031 -2.81173615 14.59462592 -3 19 C-3.66 19 -4.32 19 -5 19 C-4.70245971 11.87391001 -3.28874656 6.3327492 0 0 Z " fill="#34B1D2" transform="translate(286,224)"/>
<path d="M0 0 C1.32 0.33 2.64 0.66 4 1 C-2.08356979 4.09212176 -7.18012971 5.56699236 -14 6 C-10.68518684 2.68518684 -7.84979946 2.02786228 -3.1875 1.875 C-2.135625 1.91625 -1.08375 1.9575 0 2 C0 1.34 0 0.68 0 0 Z " fill="#15E9F7" transform="translate(445,117)"/>
<path d="M0 0 C0.71484375 1.734375 0.71484375 1.734375 1 4 C-0.43359375 6.140625 -0.43359375 6.140625 -2.4375 8.25 C-3.09621094 8.95640625 -3.75492187 9.6628125 -4.43359375 10.390625 C-5.20896484 11.18726563 -5.20896484 11.18726563 -6 12 C-6.66 11.67 -7.32 11.34 -8 11 C-5.50127818 7.1626772 -2.9156164 3.54039134 0 0 Z " fill="#18B1D6" transform="translate(295,212)"/>
<path d="M0 0 C-2.36543716 2.36543716 -4.57067205 3.27541323 -7.625 4.625 C-8.62789063 5.07101563 -9.63078125 5.51703125 -10.6640625 5.9765625 C-11.43492188 6.31429687 -12.20578125 6.65203125 -13 7 C-12.34 5.68 -11.68 4.36 -11 3 C-11.66 2.34 -12.32 1.68 -13 1 C-8.59085217 -0.10228696 -4.51617599 -0.07654536 0 0 Z " fill="#22E8F3" transform="translate(105,75)"/>
<path d="M0 0 C0.66 0 1.32 0 2 0 C2.31985731 6.71700347 1.4793824 11.75726932 -1 18 C-1.33 18 -1.66 18 -2 18 C-2.04254356 16.00045254 -2.04080783 13.99958364 -2 12 C-1.67 11.67 -1.34 11.34 -1 11 C-0.76636119 9.15108054 -0.58696365 7.29511969 -0.4375 5.4375 C-0.35371094 4.42558594 -0.26992188 3.41367187 -0.18359375 2.37109375 C-0.12300781 1.58863281 -0.06242187 0.80617188 0 0 Z " fill="#30ECED" transform="translate(329,418)"/>
<path d="M0 0 C1.77176633 6.40251923 -0.89376681 11.91974192 -3 18 C-3.33 18 -3.66 18 -4 18 C-4.59244521 11.33499135 -2.48322845 6.13047025 0 0 Z " fill="#23B4DA" transform="translate(38,53)"/>
<path d="M0 0 C1.98 0 3.96 0 6 0 C6 0.66 6 1.32 6 2 C9.465 1.505 9.465 1.505 13 1 C12.34 2.65 11.68 4.3 11 6 C7.2089881 4.55049545 3.6125362 2.84827434 0 1 C0 0.67 0 0.34 0 0 Z " fill="#1CB3D9" transform="translate(123,177)"/>
<path d="M0 0 C3.88723524 1.47446854 4.93901883 3.5052928 7 7 C7.99 7.33 8.98 7.66 10 8 C10.33 9.65 10.66 11.3 11 13 C6.34140775 9.4248013 3.2184241 5.92229568 0 1 C0 0.67 0 0.34 0 0 Z " fill="#0EAAD9" transform="translate(239,442)"/>
<path d="M0 0 C3.26845713 4.90268569 4.27944109 9.13173703 4 15 C1.08634787 11.19958418 -0.13131548 9.19208393 -0.0625 4.375 C-0.05347656 3.55773437 -0.04445312 2.74046875 -0.03515625 1.8984375 C-0.02355469 1.27195312 -0.01195312 0.64546875 0 0 Z " fill="#016196" transform="translate(232,426)"/>
<path d="M0 0 C3.25914951 3.08297927 6.06553673 5.9161331 8 10 C7.67 10.99 7.34 11.98 7 13 C6.67 12.01 6.34 11.02 6 10 C5.34 10 4.68 10 4 10 C4 8.68 4 7.36 4 6 C2.68 5.34 1.36 4.68 0 4 C0 2.68 0 1.36 0 0 Z " fill="#21EBEB" transform="translate(143,141)"/>
<path d="M0 0 C0.99 0.33 1.98 0.66 3 1 C3 2.32 3 3.64 3 5 C3.66 5 4.32 5 5 5 C5 5.66 5 6.32 5 7 C5.99 7.33 6.98 7.66 8 8 C7.01 8.495 7.01 8.495 6 9 C6 9.66 6 10.32 6 11 C6.66 11.33 7.32 11.66 8 12 C7.01 12 6.02 12 5 12 C4.16180842 10.37750059 3.3295884 8.75191503 2.5 7.125 C2.0359375 6.22007812 1.571875 5.31515625 1.09375 4.3828125 C0 2 0 2 0 0 Z " fill="#23B4D9" transform="translate(36,140)"/>
<path d="M0 0 C-4.455 3.465 -4.455 3.465 -9 7 C-9.33 6.01 -9.66 5.02 -10 4 C-4.5 -1.125 -4.5 -1.125 0 0 Z " fill="#0FEDF2" transform="translate(460,110)"/>
<path d="M0 0 C0.99 0 1.98 0 3 0 C3 3.63 3 7.26 3 11 C2.34 11 1.68 11 1 11 C0.67 7.37 0.34 3.74 0 0 Z " fill="#61E0ED" transform="translate(153,212)"/>
<path d="M0 0 C1.36125 0.12375 1.36125 0.12375 2.75 0.25 C2.75 0.91 2.75 1.57 2.75 2.25 C-0.6519487 4.34350689 -3.30272412 4.42942163 -7.25 4.25 C-4.83923194 1.28290085 -3.90322061 0.30024774 0 0 Z " fill="#08FAFC" transform="translate(363.25,198.75)"/>
<path d="M0 0 C0.33 0.66 0.66 1.32 1 2 C3.35599235 2.46751788 3.35599235 2.46751788 6.0625 2.625 C7.44115234 2.73714844 7.44115234 2.73714844 8.84765625 2.8515625 C9.55792969 2.90054688 10.26820313 2.94953125 11 3 C11 3.33 11 3.66 11 4 C5.39 4 -0.22 4 -6 4 C-4.60804085 1.2160817 -2.84424221 1.02101003 0 0 Z " fill="#1CADDA" transform="translate(411,120)"/>
<path d="M0 0 C-3.52679099 2.35119399 -5.02879485 2.21443452 -9.1875 2.125 C-10.27417969 2.10695313 -11.36085938 2.08890625 -12.48046875 2.0703125 C-13.72763672 2.03550781 -13.72763672 2.03550781 -15 2 C-15 1.67 -15 1.34 -15 1 C-9.42567486 -0.66251802 -5.6932495 -1.18609365 0 0 Z " fill="#1DE5F4" transform="translate(297,464)"/>
<path d="M0 0 C1.36125 0.37125 1.36125 0.37125 2.75 0.75 C2.42 1.74 2.09 2.73 1.75 3.75 C-1.22 3.75 -4.19 3.75 -7.25 3.75 C-4.05 -0.31153846 -4.05 -0.31153846 0 0 Z " fill="#11B8DC" transform="translate(60.25,32.25)"/>
<path d="M0 0 C0.66 0.33 1.32 0.66 2 1 C1.67 1.33 1.34 1.66 1 2 C2.32 2.66 3.64 3.32 5 4 C1.535 5.485 1.535 5.485 -2 7 C-2.33 5.02 -2.66 3.04 -3 1 C-2.01 0.67 -1.02 0.34 0 0 Z " fill="#1BEDEF" transform="translate(356,200)"/>
<path d="M0 0 C2.15973378 3.23960066 2.75921963 5.14751405 3 9 C1.5625 10.875 1.5625 10.875 0 12 C-0.92844389 7.66726186 -0.92844389 4.33273814 0 0 Z " fill="#1BEEF1" transform="translate(153,159)"/>
<path d="M0 0 C2.64 0.66 5.28 1.32 8 2 C7.67 3.65 7.34 5.3 7 7 C6.34 6.67 5.68 6.34 5 6 C5 5.01 5 4.02 5 3 C3.35 2.67 1.7 2.34 0 2 C0 1.34 0 0.68 0 0 Z " fill="#07FAFC" transform="translate(123,129)"/>
<path d="M0 0 C2.64 0 5.28 0 8 0 C8 1.32 8 2.64 8 4 C5.64828869 3.40138258 3.3140622 2.73075648 1 2 C0.67 1.34 0.34 0.68 0 0 Z " fill="#1FB0DE" transform="translate(404,75)"/>
<path d="M0 0 C0.66 0.33 1.32 0.66 2 1 C0.08864614 4.53600465 -1.62642766 6.78972846 -5 9 C-3.90931332 5.22454612 -3.0916909 2.52956528 0 0 Z " fill="#17B2DE" transform="translate(51,36)"/>
<path d="M0 0 C1.11375 0.556875 1.11375 0.556875 2.25 1.125 C-0.88498292 2.98276765 -3.12471432 3.32640476 -6.75 3.125 C-6.75 2.465 -6.75 1.805 -6.75 1.125 C-4.02098495 -0.69434337 -3.21400584 -1.02263822 0 0 Z " fill="#22E8F4" transform="translate(64.75,29.875)"/>
<path d="M0 0 C0.66 0.33 1.32 0.66 2 1 C2 4.76687864 1.76462683 5.91190305 0 9 C-1.76462683 5.91190305 -2 4.76687864 -2 1 C-1.34 0.67 -0.68 0.34 0 0 Z " fill="#1480BC" transform="translate(188,433)"/>
<path d="M0 0 C0.99 0.495 0.99 0.495 2 1 C2.33 1.99 2.66 2.98 3 4 C3.66 3.67 4.32 3.34 5 3 C5 4.98 5 6.96 5 9 C4.01 8.67 3.02 8.34 2 8 C1.26953125 6.15234375 1.26953125 6.15234375 0.8125 3.9375 C0.65394531 3.20402344 0.49539062 2.47054687 0.33203125 1.71484375 C0.22246094 1.14894531 0.11289063 0.58304688 0 0 Z " fill="#27EDEF" transform="translate(150,203)"/>
<path d="M0 0 C1.2065625 0.0309375 1.2065625 0.0309375 2.4375 0.0625 C0.79580472 2.08304804 -0.87161778 4.08293058 -2.5625 6.0625 C-2.8925 6.0625 -3.2225 6.0625 -3.5625 6.0625 C-3.605221 4.39638095 -3.60313832 2.72867115 -3.5625 1.0625 C-2.5625 0.0625 -2.5625 0.0625 0 0 Z " fill="#147BAE" transform="translate(461.5625,154.9375)"/>
<path d="M0 0 C0.66 0.33 1.32 0.66 2 1 C1.01 2.485 1.01 2.485 0 4 C-0.99 4 -1.98 4 -3 4 C-3.33 4.99 -3.66 5.98 -4 7 C-4.99 6.34 -5.98 5.68 -7 5 C-4.69 3.35 -2.38 1.7 0 0 Z " fill="#1DABCE" transform="translate(304,205)"/>
<path d="M0 0 C1.68496298 0.96885372 3.35178756 1.96986723 5 3 C5 3.33 5 3.66 5 4 C1.37 4 -2.26 4 -6 4 C-6 3.67 -6 3.34 -6 3 C-4.02 3 -2.04 3 0 3 C0 2.01 0 1.02 0 0 Z " fill="#0B77B3" transform="translate(251,462)"/>
<path d="M0 0 C2.31 0.33 4.62 0.66 7 1 C7.33 1.99 7.66 2.98 8 4 C2.25 2.25 2.25 2.25 0 0 Z " fill="#177EB3" transform="translate(205,459)"/>
<path d="M0 0 C2.97 1.65 5.94 3.3 9 5 C9 5.33 9 5.66 9 6 C7.02 6 5.04 6 3 6 C2.67 5.01 2.34 4.02 2 3 C1.34 2.67 0.68 2.34 0 2 C0 1.34 0 0.68 0 0 Z " fill="#1FB0D6" transform="translate(239,409)"/>
<path d="M0 0 C0.66 0 1.32 0 2 0 C2.66 2.64 3.32 5.28 4 8 C2.68 7.34 1.36 6.68 0 6 C0 4.02 0 2.04 0 0 Z " fill="#1FAED0" transform="translate(232,397)"/>
<path d="M0 0 C0.33 0 0.66 0 1 0 C1.33 1.98 1.66 3.96 2 6 C0.68 6.99 -0.64 7.98 -2 9 C-1.125 2.25 -1.125 2.25 0 0 Z " fill="#19B0DA" transform="translate(286,224)"/>
</svg>
